<svg width="117" height="76" viewBox="0 0 117 76" fill="none" xmlns="http://www.w3.org/2000/svg">
<path d="M47.8489 37.9999C47.8489 34.1799 52.6178 31.0824 58.5022 31.0824C64.3865 31.0824 69.1579 34.1799 69.1579 37.9999C69.1579 41.8199 64.3865 44.9175 58.5022 44.9175C52.6178 44.9175 47.8489 41.8199 47.8489 37.9999ZM42.0886 37.9999C42.0886 43.8849 49.4369 48.6553 58.5022 48.6553C67.5674 48.6553 74.9157 43.8849 74.9157 37.9999C74.9157 32.1149 67.5674 27.3445 58.5022 27.3445C49.4369 27.3445 42.0886 32.1149 42.0886 37.9999ZM71.7297 26.922C71.7294 27.4145 71.9541 27.896 72.3753 28.3056C72.7965 28.7152 73.3954 29.0346 74.0962 29.2232C74.797 29.4119 75.5682 29.4614 76.3123 29.3655C77.0564 29.2696 77.74 29.0326 78.2767 28.6845C78.8134 28.3364 79.1789 27.8928 79.3272 27.4098C79.4756 26.9268 79.3999 26.4261 79.1099 25.971C78.8198 25.5159 78.3284 25.1269 77.6978 24.8531C77.0672 24.5793 76.3257 24.4331 75.567 24.4329H75.5655C74.5486 24.4332 73.5734 24.6955 72.8542 25.1622C72.135 25.6289 71.7306 26.2619 71.7297 26.922ZM45.5884 54.8907C42.4719 54.7986 40.7781 54.4616 39.6524 54.1769C38.16 53.7997 37.0952 53.3505 35.9757 52.6247C34.8561 51.8989 34.1631 51.2083 33.5847 50.2395C33.1459 49.5091 32.6268 48.4091 32.4851 46.386C32.3301 44.1987 32.2992 43.5416 32.2992 38.0001C32.2992 32.4586 32.3327 31.8033 32.4851 29.6142C32.627 27.591 33.15 26.4932 33.5847 25.7606C34.1657 24.7918 34.8577 24.1006 35.9757 23.3738C37.0937 22.647 38.1575 22.1971 39.6524 21.8216C40.7775 21.5367 42.4719 21.1997 45.5884 21.1078C48.9577 21.0072 49.9699 20.9871 58.5022 20.9871C67.0345 20.9871 68.0476 21.0088 71.4198 21.1078C74.5362 21.1999 76.2273 21.5394 77.3558 21.8216C78.8481 22.1971 79.9129 22.648 81.0325 23.3738C82.152 24.0996 82.8425 24.7918 83.4235 25.7606C83.8623 26.4911 84.3814 27.591 84.523 29.6142C84.678 31.8033 84.709 32.4586 84.709 38.0001C84.709 43.5416 84.678 44.1968 84.523 46.386C84.3811 48.4091 83.8595 49.5088 83.4235 50.2395C82.8425 51.2083 82.1505 51.8996 81.0325 52.6247C79.9145 53.3498 78.8481 53.7997 77.3558 54.1769C76.2306 54.4618 74.5362 54.7988 71.4198 54.8907C68.0504 54.9913 67.0383 55.0114 58.5022 55.0114C49.966 55.0114 48.9567 54.9913 45.5884 54.8907ZM45.3237 17.3746C41.9209 17.4752 39.5956 17.8254 37.565 18.3384C35.4619 18.8681 33.6816 19.5788 31.9026 20.7319C30.1235 21.885 29.0316 23.0426 28.2156 24.4078C27.4255 25.7269 26.8859 27.2356 26.7309 29.4447C26.5734 31.6572 26.5374 32.3646 26.5374 37.9999C26.5374 43.6352 26.5734 44.3426 26.7309 46.5551C26.8859 48.7644 27.4255 50.2729 28.2156 51.592C29.0316 52.9564 30.1238 54.1153 31.9026 55.2679C33.6814 56.4205 35.4619 57.1302 37.565 57.6614C39.5995 58.1744 41.9209 58.5247 45.3237 58.6253C48.7337 58.7259 49.8215 58.7509 58.5022 58.7509C67.1828 58.7509 68.2724 58.7275 71.6806 58.6253C75.0837 58.5247 77.4074 58.1744 79.4394 57.6614C81.5411 57.1302 83.3227 56.421 85.1017 55.2679C86.8808 54.1148 87.9704 52.9564 88.7887 51.592C89.5788 50.2729 90.121 48.7642 90.2734 46.5551C90.4283 44.3409 90.4644 43.6352 90.4644 37.9999C90.4644 32.3646 90.4283 31.6572 90.2734 29.4447C90.1184 27.2354 89.5788 25.7261 88.7887 24.4078C87.9704 23.0434 86.8779 21.8868 85.1017 20.7319C83.3255 19.577 81.5411 18.8681 79.4419 18.3384C77.4074 17.8254 75.0834 17.4735 71.6832 17.3746C68.2749 17.274 67.1853 17.2489 58.5047 17.2489C49.8241 17.2489 48.7337 17.2723 45.3237 17.3746Z" fill="url(#paint0_radial_540_233)"/>
<path d="M47.8489 37.9999C47.8489 34.1799 52.6178 31.0824 58.5022 31.0824C64.3865 31.0824 69.1579 34.1799 69.1579 37.9999C69.1579 41.8199 64.3865 44.9175 58.5022 44.9175C52.6178 44.9175 47.8489 41.8199 47.8489 37.9999ZM42.0886 37.9999C42.0886 43.8849 49.4369 48.6553 58.5022 48.6553C67.5674 48.6553 74.9157 43.8849 74.9157 37.9999C74.9157 32.1149 67.5674 27.3445 58.5022 27.3445C49.4369 27.3445 42.0886 32.1149 42.0886 37.9999ZM71.7297 26.922C71.7294 27.4145 71.9541 27.896 72.3753 28.3056C72.7965 28.7152 73.3954 29.0346 74.0962 29.2232C74.797 29.4119 75.5682 29.4614 76.3123 29.3655C77.0564 29.2696 77.74 29.0326 78.2767 28.6845C78.8134 28.3364 79.1789 27.8928 79.3272 27.4098C79.4756 26.9268 79.3999 26.4261 79.1099 25.971C78.8198 25.5159 78.3284 25.1269 77.6978 24.8531C77.0672 24.5793 76.3257 24.4331 75.567 24.4329H75.5655C74.5486 24.4332 73.5734 24.6955 72.8542 25.1622C72.135 25.6289 71.7306 26.2619 71.7297 26.922ZM45.5884 54.8907C42.4719 54.7986 40.7781 54.4616 39.6524 54.1769C38.16 53.7997 37.0952 53.3505 35.9757 52.6247C34.8561 51.8989 34.1631 51.2083 33.5847 50.2395C33.1459 49.5091 32.6268 48.4091 32.4851 46.386C32.3301 44.1987 32.2992 43.5416 32.2992 38.0001C32.2992 32.4586 32.3327 31.8033 32.4851 29.6142C32.627 27.591 33.15 26.4932 33.5847 25.7606C34.1657 24.7918 34.8577 24.1006 35.9757 23.3738C37.0937 22.647 38.1575 22.1971 39.6524 21.8216C40.7775 21.5367 42.4719 21.1997 45.5884 21.1078C48.9577 21.0072 49.9699 20.9871 58.5022 20.9871C67.0345 20.9871 68.0476 21.0088 71.4198 21.1078C74.5362 21.1999 76.2273 21.5394 77.3558 21.8216C78.8481 22.1971 79.9129 22.648 81.0325 23.3738C82.152 24.0996 82.8425 24.7918 83.4235 25.7606C83.8623 26.4911 84.3814 27.591 84.523 29.6142C84.678 31.8033 84.709 32.4586 84.709 38.0001C84.709 43.5416 84.678 44.1968 84.523 46.386C84.3811 48.4091 83.8595 49.5088 83.4235 50.2395C82.8425 51.2083 82.1505 51.8996 81.0325 52.6247C79.9145 53.3498 78.8481 53.7997 77.3558 54.1769C76.2306 54.4618 74.5362 54.7988 71.4198 54.8907C68.0504 54.9913 67.0383 55.0114 58.5022 55.0114C49.966 55.0114 48.9567 54.9913 45.5884 54.8907ZM45.3237 17.3746C41.9209 17.4752 39.5956 17.8254 37.565 18.3384C35.4619 18.8681 33.6816 19.5788 31.9026 20.7319C30.1235 21.885 29.0316 23.0426 28.2156 24.4078C27.4255 25.7269 26.8859 27.2356 26.7309 29.4447C26.5734 31.6572 26.5374 32.3646 26.5374 37.9999C26.5374 43.6352 26.5734 44.3426 26.7309 46.5551C26.8859 48.7644 27.4255 50.2729 28.2156 51.592C29.0316 52.9564 30.1238 54.1153 31.9026 55.2679C33.6814 56.4205 35.4619 57.1302 37.565 57.6614C39.5995 58.1744 41.9209 58.5247 45.3237 58.6253C48.7337 58.7259 49.8215 58.7509 58.5022 58.7509C67.1828 58.7509 68.2724 58.7275 71.6806 58.6253C75.0837 58.5247 77.4074 58.1744 79.4394 57.6614C81.5411 57.1302 83.3227 56.421 85.1017 55.2679C86.8808 54.1148 87.9704 52.9564 88.7887 51.592C89.5788 50.2729 90.121 48.7642 90.2734 46.5551C90.4283 44.3409 90.4644 43.6352 90.4644 37.9999C90.4644 32.3646 90.4283 31.6572 90.2734 29.4447C90.1184 27.2354 89.5788 25.7261 88.7887 24.4078C87.9704 23.0434 86.8779 21.8868 85.1017 20.7319C83.3255 19.577 81.5411 18.8681 79.4419 18.3384C77.4074 17.8254 75.0834 17.4735 71.6832 17.3746C68.2749 17.274 67.1853 17.2489 58.5047 17.2489C49.8241 17.2489 48.7337 17.2723 45.3237 17.3746Z" fill="url(#paint1_radial_540_233)"/>
<defs>
<radialGradient id="paint0_radial_540_233" cx="0" cy="0" r="1" gradientUnits="userSpaceOnUse" gradientTransform="translate(35.0308 58.947) scale(83.4547 54.1774)">
<stop offset="0.09" stop-color="#FA8F21"/>
<stop offset="0.78" stop-color="#D82D7E"/>
</radialGradient>
<radialGradient id="paint1_radial_540_233" cx="0" cy="0" r="1" gradientUnits="userSpaceOnUse" gradientTransform="translate(65.3078 60.8063) scale(65.7738 42.6993)">
<stop offset="0.64" stop-color="#8C3AAA" stop-opacity="0"/>
<stop offset="1" stop-color="#8C3AAA"/>
</radialGradient>
</defs>
</svg>
