<svg width="114" height="80" viewBox="0 0 114 80" fill="none" xmlns="http://www.w3.org/2000/svg">
<path d="M88.806 23.2653C86.7004 24.0055 84.4866 24.5209 82.2196 24.7989C83.2795 24.6505 84.8391 23.0921 85.4598 22.4614C86.403 21.51 87.1217 20.4238 87.5796 19.2582C87.5796 19.1716 87.6856 19.0479 87.5796 18.9861C87.5262 18.9623 87.4663 18.9498 87.4055 18.9498C87.3446 18.9498 87.2848 18.9623 87.2314 18.9861C84.7697 20.0749 82.1498 20.906 79.4337 21.4596C79.339 21.4832 79.2382 21.4853 79.1422 21.4657C79.0462 21.4461 78.9585 21.4055 78.8886 21.3483C78.6771 21.1427 78.4495 20.9485 78.2072 20.767C77.0994 19.9563 75.8425 19.2927 74.4825 18.8006C72.6467 18.1854 70.6637 17.9189 68.6834 18.0214C66.7619 18.1205 64.8859 18.5415 63.172 19.2582C61.4843 20.0137 60.0011 21.0402 58.8114 22.2759C57.5599 23.5477 56.6564 25.0237 56.1617 26.6045C55.7537 28.1083 55.7074 29.6624 56.0254 31.1806C56.0254 31.4403 56.0254 31.4774 55.7528 31.4403C44.9572 30.1417 36.0996 27.0127 28.8621 20.297C28.5441 20.0002 28.3776 20.0002 28.1202 20.297C24.9708 24.2052 26.5001 30.389 30.4368 33.4439C30.9667 33.852 31.5118 34.2477 32.0872 34.6188C30.2822 34.5141 28.5213 34.1146 26.9089 33.4439C26.6061 33.2831 26.4395 33.3696 26.4244 33.6665C26.3814 34.078 26.3814 34.4917 26.4244 34.9032C26.7403 36.8754 27.6918 38.7436 29.1816 40.3168C30.6714 41.8901 32.6459 43.1119 34.9034 43.8574C35.4537 44.0499 36.0272 44.195 36.6144 44.2903C34.9434 44.559 33.2297 44.6008 31.5421 44.414C31.1787 44.3521 31.0424 44.5129 31.1787 44.7973C33.4045 49.7444 38.2345 51.2533 41.7775 52.0943C42.262 52.1561 42.7466 52.1561 43.2916 52.255C43.2916 52.255 43.2916 52.255 43.2008 52.3292C42.1561 53.8876 37.9317 54.9388 35.9936 55.483C32.4561 56.5209 28.6845 56.9176 24.9405 56.6455C24.35 56.5713 24.2138 56.5837 24.0623 56.6455C23.9109 56.7074 24.0623 56.8434 24.2289 56.9671C24.986 57.3752 25.743 57.7339 26.5304 58.0802C28.8743 59.1245 31.3523 59.954 33.9193 60.5537C47.2132 63.5467 62.1727 61.3453 72.1507 53.2444C79.9939 46.8875 82.7496 38.1188 82.7496 29.3378C82.7496 29.0039 83.2492 28.806 83.5369 28.6328C85.5212 27.37 87.2706 25.8786 88.7303 24.2052C88.9832 23.9558 89.1128 23.6382 89.0937 23.3148C89.0937 23.1292 89.0937 23.1663 88.806 23.2653Z" fill="#33CCFF"/>
</svg>
