<svg width="112" height="95" viewBox="0 0 112 95" fill="none" xmlns="http://www.w3.org/2000/svg">
<path fill-rule="evenodd" clip-rule="evenodd" d="M88.6796 33.155C89.1529 31.9003 88.6796 30.9783 86.427 30.9783H78.9781C77.0841 30.9783 76.2109 31.7747 75.7374 32.653C75.7374 32.653 71.9494 39.9931 66.5831 44.761C64.847 46.1412 64.0578 46.5803 63.1108 46.5803C62.6374 46.5803 61.952 46.1412 61.952 44.8865V33.155C61.952 31.6493 61.4023 30.9783 59.8238 30.9783H48.1185C46.9349 30.9783 46.2231 31.6771 46.2231 32.3394C46.2231 33.7668 48.906 34.0959 49.1826 38.1111V46.8314C49.1826 48.7432 48.7483 49.0899 47.8013 49.0899C45.2761 49.0899 39.1335 41.717 35.4904 33.2804C34.7764 31.6407 34.0603 30.9783 32.1566 30.9783H24.7077C22.5795 30.9783 22.1538 31.7747 22.1538 32.653C22.1538 34.2214 24.6791 42.0007 33.9122 52.2893C40.0675 59.3156 48.7399 63.1244 56.6315 63.1244C61.3663 63.1244 61.9521 62.2785 61.9521 60.8213V55.5109C61.9521 53.819 62.4007 53.4813 63.9 53.4813C65.0048 53.4813 66.8988 53.9204 71.3181 57.3082C76.3687 61.3232 77.2013 63.1244 80.0422 63.1244H87.4911C89.6193 63.1244 90.6835 62.2785 90.0696 60.609C89.3978 58.9452 86.9865 56.5311 83.7868 53.6695C82.0506 52.0384 79.4464 50.2819 78.6572 49.4034C77.5524 48.2743 77.8681 47.7723 78.6572 46.7686C78.6572 46.7686 87.7326 36.6054 88.6796 33.155Z" fill="#2787F5"/>
</svg>
